<?xml version="1.0" encoding="UTF-8"?>
<svg width="64px" height="64px" viewBox="0 0 64 64" version="1.1" xmlns="http://www.w3.org/2000/svg" xmlns:xlink="http://www.w3.org/1999/xlink">
    <!-- Generator: Sketch 49.3 (51167) - http://www.bohemiancoding.com/sketch -->
    <title>favicon inverted</title>
    <desc>Created with Sketch.</desc>
    <defs>
        <rect id="path-1" x="0" y="0" width="64" height="64"></rect>
    </defs>
    <g id="favicon-inverted" stroke="none" stroke-width="1" fill="none" fill-rule="evenodd">
        <g id="Rectangle">
            <use fill="#FF1844" fill-rule="evenodd" xlink:href="#path-1"></use>
            <rect x="0" y="0" width="64" height="64"></rect>
        </g>
        <g id="Group" transform="translate(4.000000, 16.000000)" fill="#FFFFFF">
            <path d="M6.47252747,26 L0,0 L7.62087912,0 L10.1263736,12.0564516 C10.3351659,13.3494688 10.5265559,14.6249937 10.7005495,15.8830645 C10.874543,17.1411353 11.065933,18.4341331 11.2747253,19.7620968 L11.4835165,19.7620968 C11.7271074,18.4341331 11.9619952,17.1236624 12.1881868,15.8306452 C12.4143784,14.5376279 12.6840644,13.279576 12.9972527,12.0564516 L15.8681319,0 L22.4972527,0 L25.4203297,12.0564516 C25.733518,13.3494688 26.0119035,14.6249937 26.2554945,15.8830645 C26.4990855,17.1411353 26.7600719,18.4341331 27.0384615,19.7620968 L27.2472527,19.7620968 C27.4908437,18.4341331 27.6909333,17.1411353 27.8475275,15.8830645 C28.0041217,14.6249937 28.2042112,13.3494688 28.4478022,12.0564516 L30.9010989,0 L38,0 L31.7884615,26 L22.8104396,26 L20.4615385,15.6209677 C20.1831488,14.3978433 19.9395615,13.1747373 19.7307692,11.9516129 C19.521977,10.7284885 19.2957888,9.41801774 19.0521978,8.02016129 L18.8434066,8.02016129 C18.5998156,9.41801774 18.382327,10.7284885 18.1909341,11.9516129 C17.9995412,13.1747373 17.7820525,14.3978433 17.5384615,15.6209677 L15.2417582,26 L6.47252747,26 Z" id="w"></path>
            <path d="M44.026253,35 C41.4009415,35 39.2044639,34.4904669 37.4367542,33.4713855 C35.6690445,32.4523041 34.1901412,30.8885648 33,28.7801205 L38.2505967,24.8795181 C38.8806714,26.0391624 39.6157476,26.9000976 40.4558473,27.4623494 C41.2959469,28.0246012 42.1535358,28.3057229 43.0286396,28.3057229 C44.4288057,28.3057229 45.4876655,27.8752553 46.2052506,27.0143072 C46.9228357,26.1533591 47.2816229,24.5808347 47.2816229,22.2966867 L47.2816229,0 L55,0 L55,22.9292169 C55,24.5808316 54.7812273,26.1445709 54.3436754,27.6204819 C53.9061235,29.0963929 53.2410546,30.3790106 52.3484487,31.4683735 C51.4558428,32.5577364 50.3182249,33.4186715 48.9355609,34.0512048 C47.5528968,34.6837381 45.9164772,35 44.026253,35 Z" id="J"></path>
        </g>
    </g>
</svg>