<svg width="190" height="40" viewBox="0 0 190 40" fill="none" xmlns="http://www.w3.org/2000/svg">
<path fill-rule="evenodd" clip-rule="evenodd" d="M6.476 12.442H10.76L12.494 19.956C12.868 21.724 13.242 23.526 13.548 25.328H13.616C13.956 23.526 14.5 21.69 14.976 19.99L17.118 12.442H20.518L22.592 19.786C23.102 21.724 23.544 23.526 23.918 25.328H23.986C24.258 23.526 24.632 21.724 25.074 19.786L26.91 12.442H31.024L25.822 29H21.946L19.974 22.268C19.464 20.534 19.09 18.97 18.716 16.964H18.648C18.308 19.004 17.866 20.636 17.39 22.268L15.282 29H11.372L6.476 12.442ZM32.71 29V17.78C32.71 15.536 32.676 13.938 32.574 12.442H36.212L36.348 15.604H36.484C37.3 13.258 39.238 12.068 41.006 12.068C41.414 12.068 41.652 12.102 41.992 12.17V16.114C41.652 16.046 41.278 15.978 40.768 15.978C38.762 15.978 37.402 17.27 37.028 19.14C36.96 19.514 36.892 19.956 36.892 20.432V29H32.71ZM48.03 29H43.814V12.442H48.03V29ZM45.922 5.53999C47.35 5.53999 48.234 6.52599 48.268 7.81799C48.268 9.07599 47.35 10.062 45.888 10.062C44.494 10.062 43.576 9.07599 43.576 7.81799C43.576 6.52599 44.528 5.53999 45.922 5.53999ZM52.232 8.70199L56.312 7.71599V12.442H60.29V15.57H56.312V22.88C56.312 24.886 56.856 25.94 58.454 25.94C59.168 25.94 59.712 25.838 60.086 25.736L60.154 28.932C59.542 29.17 58.454 29.34 57.128 29.34C55.598 29.34 54.306 28.83 53.524 27.98C52.64 27.028 52.232 25.532 52.232 23.356V15.57H49.852V12.442H52.232V8.70199ZM76.494 21.894H65.41C65.512 24.886 67.858 26.178 70.51 26.178C72.448 26.178 73.842 25.906 75.1 25.43L75.712 28.32C74.284 28.898 72.312 29.34 69.932 29.34C64.56 29.34 61.398 26.042 61.398 20.976C61.398 16.386 64.186 12.068 69.49 12.068C74.862 12.068 76.63 16.488 76.63 20.126C76.63 20.908 76.562 21.52 76.494 21.894ZM65.41 18.97H72.686C72.72 17.44 72.04 14.924 69.252 14.924C66.668 14.924 65.58 17.27 65.41 18.97Z" fill="#FF1844"/>
<path fill-rule="evenodd" clip-rule="evenodd" d="M100.996 12C106.096 12 109.496 15.502 109.496 20.5C109.496 26.586 105.178 29.374 100.724 29.374C95.862 29.374 92.122 26.178 92.122 20.806C92.122 15.434 95.658 12 100.996 12ZM100.86 15.672C98.378 15.672 97.46 18.222 97.46 20.67C97.46 23.526 98.65 25.668 100.86 25.668C102.866 25.668 104.158 23.662 104.158 20.67C104.158 18.188 103.206 15.672 100.86 15.672ZM127.366 12.374V23.662C127.366 25.838 127.434 27.606 127.502 29H123.014L122.776 26.654H122.674C122.028 27.674 120.464 29.374 117.472 29.374C114.106 29.374 111.624 27.266 111.624 22.132V12.374H116.826V21.316C116.826 23.73 117.608 25.192 119.41 25.192C120.838 25.192 121.654 24.206 121.994 23.39C122.13 23.084 122.164 22.676 122.164 22.268V12.374H127.366ZM130.514 29V17.848C130.514 15.4 130.446 13.802 130.378 12.374H134.832L135.002 15.434H135.138C135.988 13.02 138.028 12 139.626 12C140.102 12 140.34 12 140.714 12.068V16.93C140.34 16.862 139.898 16.794 139.32 16.794C137.416 16.794 136.124 17.814 135.784 19.412C135.716 19.752 135.682 20.16 135.682 20.568V29H130.514ZM142.434 29V17.678C142.434 15.604 142.366 13.836 142.298 12.374H146.786L147.024 14.652H147.126C147.806 13.598 149.506 12 152.26 12C155.66 12 158.21 14.244 158.21 19.14V29H153.042V19.786C153.042 17.644 152.294 16.182 150.424 16.182C148.996 16.182 148.146 17.168 147.806 18.12C147.67 18.426 147.602 18.936 147.602 19.412V29H142.434ZM175.468 29H170.81L170.504 27.334H170.402C169.314 28.66 167.614 29.374 165.642 29.374C162.276 29.374 160.27 26.926 160.27 24.274C160.27 19.956 164.146 17.882 170.028 17.916V17.678C170.028 16.794 169.552 15.536 167.002 15.536C165.302 15.536 163.5 16.114 162.412 16.794L161.46 13.462C162.616 12.816 164.894 12 167.92 12C173.462 12 175.23 15.264 175.23 19.174V24.954C175.23 26.552 175.298 28.082 175.468 29ZM170.198 22.948V21.146C167.478 21.112 165.37 21.758 165.37 23.764C165.37 25.09 166.254 25.736 167.41 25.736C168.702 25.736 169.756 24.886 170.096 23.832C170.164 23.56 170.198 23.254 170.198 22.948ZM178.31 29V4.86H183.478V29H178.31Z" fill="#FF1844"/>
<path fill-rule="evenodd" clip-rule="evenodd" d="M84.732 26.5V12.084H89.9V26.568C89.9 33.096 86.772 35.374 81.74 35.374C80.55 35.374 78.986 35.17 77.966 34.83L78.544 30.648C79.258 30.886 80.176 31.056 81.196 31.056C83.372 31.056 84.732 30.07 84.732 26.5Z" fill="#FF1844"/>
</svg>
