<?xml version="1.0" encoding="UTF-8"?>
<svg width="190px" height="40px" viewBox="0 0 190 40" version="1.1" xmlns="http://www.w3.org/2000/svg" xmlns:xlink="http://www.w3.org/1999/xlink">
    <!-- Generator: Sketch 49.3 (51167) - http://www.bohemiancoding.com/sketch -->
    <title>writejournal-logo-white</title>
    <desc>Created with Sketch.</desc>
    <defs></defs>
    <g id="writejournal-logo-white" stroke="none" stroke-width="1" fill="none" fill-rule="evenodd">
        <g id="logo" transform="translate(6.000000, 4.000000)" fill="#FFFFFF">
            <path d="M0.476,8.442 L4.76,8.442 L6.494,15.956 C6.868,17.724 7.242,19.526 7.548,21.328 L7.616,21.328 C7.956,19.526 8.5,17.69 8.976,15.99 L11.118,8.442 L14.518,8.442 L16.592,15.786 C17.102,17.724 17.544,19.526 17.918,21.328 L17.986,21.328 C18.258,19.526 18.632,17.724 19.074,15.786 L20.91,8.442 L25.024,8.442 L19.822,25 L15.946,25 L13.974,18.268 C13.464,16.534 13.09,14.97 12.716,12.964 L12.648,12.964 C12.308,15.004 11.866,16.636 11.39,18.268 L9.282,25 L5.372,25 L0.476,8.442 Z M26.71,25 L26.71,13.78 C26.71,11.536 26.676,9.938 26.574,8.442 L30.212,8.442 L30.348,11.604 L30.484,11.604 C31.3,9.258 33.238,8.068 35.006,8.068 C35.414,8.068 35.652,8.102 35.992,8.17 L35.992,12.114 C35.652,12.046 35.278,11.978 34.768,11.978 C32.762,11.978 31.402,13.27 31.028,15.14 C30.96,15.514 30.892,15.956 30.892,16.432 L30.892,25 L26.71,25 Z M42.03,25 L37.814,25 L37.814,8.442 L42.03,8.442 L42.03,25 Z M39.922,1.54 C41.35,1.54 42.234,2.526 42.268,3.818 C42.268,5.076 41.35,6.062 39.888,6.062 C38.494,6.062 37.576,5.076 37.576,3.818 C37.576,2.526 38.528,1.54 39.922,1.54 Z M46.232,4.702 L50.312,3.716 L50.312,8.442 L54.29,8.442 L54.29,11.57 L50.312,11.57 L50.312,18.88 C50.312,20.886 50.856,21.94 52.454,21.94 C53.168,21.94 53.712,21.838 54.086,21.736 L54.154,24.932 C53.542,25.17 52.454,25.34 51.128,25.34 C49.598,25.34 48.306,24.83 47.524,23.98 C46.64,23.028 46.232,21.532 46.232,19.356 L46.232,11.57 L43.852,11.57 L43.852,8.442 L46.232,8.442 L46.232,4.702 Z M70.494,17.894 L59.41,17.894 C59.512,20.886 61.858,22.178 64.51,22.178 C66.448,22.178 67.842,21.906 69.1,21.43 L69.712,24.32 C68.284,24.898 66.312,25.34 63.932,25.34 C58.56,25.34 55.398,22.042 55.398,16.976 C55.398,12.386 58.186,8.068 63.49,8.068 C68.862,8.068 70.63,12.488 70.63,16.126 C70.63,16.908 70.562,17.52 70.494,17.894 Z M59.41,14.97 L66.686,14.97 C66.72,13.44 66.04,10.924 63.252,10.924 C60.668,10.924 59.58,13.27 59.41,14.97 Z" id="write"></path>
            <path d="M94.996,8 C100.096,8 103.496,11.502 103.496,16.5 C103.496,22.586 99.178,25.374 94.724,25.374 C89.862,25.374 86.122,22.178 86.122,16.806 C86.122,11.434 89.658,8 94.996,8 Z M94.86,11.672 C92.378,11.672 91.46,14.222 91.46,16.67 C91.46,19.526 92.65,21.668 94.86,21.668 C96.866,21.668 98.158,19.662 98.158,16.67 C98.158,14.188 97.206,11.672 94.86,11.672 Z M121.366,8.374 L121.366,19.662 C121.366,21.838 121.434,23.606 121.502,25 L117.014,25 L116.776,22.654 L116.674,22.654 C116.028,23.674 114.464,25.374 111.472,25.374 C108.106,25.374 105.624,23.266 105.624,18.132 L105.624,8.374 L110.826,8.374 L110.826,17.316 C110.826,19.73 111.608,21.192 113.41,21.192 C114.838,21.192 115.654,20.206 115.994,19.39 C116.13,19.084 116.164,18.676 116.164,18.268 L116.164,8.374 L121.366,8.374 Z M124.514,25 L124.514,13.848 C124.514,11.4 124.446,9.802 124.378,8.374 L128.832,8.374 L129.002,11.434 L129.138,11.434 C129.988,9.02 132.028,8 133.626,8 C134.102,8 134.34,8 134.714,8.068 L134.714,12.93 C134.34,12.862 133.898,12.794 133.32,12.794 C131.416,12.794 130.124,13.814 129.784,15.412 C129.716,15.752 129.682,16.16 129.682,16.568 L129.682,25 L124.514,25 Z M136.434,25 L136.434,13.678 C136.434,11.604 136.366,9.836 136.298,8.374 L140.786,8.374 L141.024,10.652 L141.126,10.652 C141.806,9.598 143.506,8 146.26,8 C149.66,8 152.21,10.244 152.21,15.14 L152.21,25 L147.042,25 L147.042,15.786 C147.042,13.644 146.294,12.182 144.424,12.182 C142.996,12.182 142.146,13.168 141.806,14.12 C141.67,14.426 141.602,14.936 141.602,15.412 L141.602,25 L136.434,25 Z M169.468,25 L164.81,25 L164.504,23.334 L164.402,23.334 C163.314,24.66 161.614,25.374 159.642,25.374 C156.276,25.374 154.27,22.926 154.27,20.274 C154.27,15.956 158.146,13.882 164.028,13.916 L164.028,13.678 C164.028,12.794 163.552,11.536 161.002,11.536 C159.302,11.536 157.5,12.114 156.412,12.794 L155.46,9.462 C156.616,8.816 158.894,8 161.92,8 C167.462,8 169.23,11.264 169.23,15.174 L169.23,20.954 C169.23,22.552 169.298,24.082 169.468,25 Z M164.198,18.948 L164.198,17.146 C161.478,17.112 159.37,17.758 159.37,19.764 C159.37,21.09 160.254,21.736 161.41,21.736 C162.702,21.736 163.756,20.886 164.096,19.832 C164.164,19.56 164.198,19.254 164.198,18.948 Z M172.31,25 L172.31,0.86 L177.478,0.86 L177.478,25 L172.31,25 Z" id="ournal"></path>
            <path d="M78.732,22.5 L78.732,8.084 L83.9,8.084 L83.9,22.568 C83.9,29.096 80.772,31.374 75.74,31.374 C74.55,31.374 72.986,31.17 71.966,30.83 L72.544,26.648 C73.258,26.886 74.176,27.056 75.196,27.056 C77.372,27.056 78.732,26.07 78.732,22.5 Z" id="J"></path>
        </g>
    </g>
</svg>