<?xml version="1.0" encoding="UTF-8"?>
<svg width="248px" height="248px" viewBox="0 0 248 248" version="1.1" xmlns="http://www.w3.org/2000/svg" xmlns:xlink="http://www.w3.org/1999/xlink">
    <!-- Generator: Sketch 50.2 (55047) - http://www.bohemiancoding.com/sketch -->
    <title>writejournal-square-log-inverted</title>
    <desc>Created with Sketch.</desc>
    <defs></defs>
    <g id="writejournal-square-log-inverted" stroke="none" stroke-width="1" fill="none" fill-rule="evenodd">
        <rect id="Rectangle-8" fill="#FF1844" x="0" y="0" width="248" height="248"></rect>
        <g id="logo" transform="translate(17.000000, 69.000000)" fill="#FFFFFF">
            <path d="M53.0701754,13.9912281 L61.7907796,13.9912281 L65.3205479,29.2230576 C66.0818705,32.8070175 66.8431931,36.4598997 67.4660934,40.112782 C68.2966271,36.4598997 69.4040054,32.7380952 70.3729614,29.2919799 L74.7332635,13.9912281 L81.6543779,13.9912281 L85.8762577,28.8784461 C86.9144249,32.8070175 87.8141697,36.4598997 88.5754923,40.112782 C89.2676038,36.4598997 90.0289263,32.8070175 90.9286712,28.8784461 L94.666073,13.9912281 L103.040621,13.9912281 L92.4513164,47.556391 L84.561246,47.556391 L80.5469996,33.9097744 C79.5088324,30.3947368 78.7475099,27.2243108 77.9861873,23.1578947 C77.1556536,27.2932331 76.2559087,30.6015038 75.2869527,33.9097744 L70.9958617,47.556391 L63.0365802,47.556391 L53.0701754,13.9912281 Z M106.47268,47.556391 L106.47268,24.8120301 C106.47268,20.2631579 106.403469,17.0238095 106.195835,13.9912281 L113.601428,13.9912281 L113.878272,20.4010025 L114.155117,20.4010025 C115.816184,15.6453634 119.76122,13.2330827 123.360199,13.2330827 C124.190733,13.2330827 124.675211,13.302005 125.367322,13.4398496 L125.367322,21.4348371 C124.675211,21.2969925 123.913888,21.1591479 122.875721,21.1591479 C118.792264,21.1591479 116.023818,23.7781955 115.262495,27.5689223 C115.124073,28.3270677 114.985651,29.2230576 114.985651,30.1879699 L114.985651,47.556391 L106.47268,47.556391 Z M137.658407,47.556391 L129.076225,47.556391 L129.076225,13.9912281 L137.658407,13.9912281 L137.658407,47.556391 Z M133.367316,0 C136.274184,0 138.073674,1.99874687 138.142885,4.61779449 C138.142885,7.1679198 136.274184,9.16666667 133.298105,9.16666667 C130.460448,9.16666667 128.591747,7.1679198 128.591747,4.61779449 C128.591747,1.99874687 130.529659,0 133.367316,0 Z M146.21209,6.40977444 L154.517428,4.41102757 L154.517428,13.9912281 L162.615131,13.9912281 L162.615131,20.3320802 L154.517428,20.3320802 L154.517428,35.1503759 C154.517428,39.216792 155.624806,41.3533835 158.87773,41.3533835 C160.331164,41.3533835 161.438542,41.1466165 162.199865,40.9398496 L162.338287,47.4185464 C161.092486,47.9010025 158.87773,48.245614 156.178495,48.245614 C153.063994,48.245614 150.43397,47.2117794 148.842114,45.4887218 C147.042624,43.5588972 146.21209,40.5263158 146.21209,36.1152882 L146.21209,20.3320802 L141.36731,20.3320802 L141.36731,13.9912281 L146.21209,13.9912281 L146.21209,6.40977444 Z M195.600348,33.1516291 L173.037515,33.1516291 C173.245149,39.216792 178.020718,41.8358396 183.419187,41.8358396 C187.364222,41.8358396 190.201879,41.2844612 192.762692,40.3195489 L194.008492,46.1779449 C191.101624,47.3496241 187.087378,48.245614 182.242598,48.245614 C171.307237,48.245614 164.8706,41.5601504 164.8706,31.2907268 C164.8706,21.9862155 170.545914,13.2330827 181.342853,13.2330827 C192.278213,13.2330827 195.877193,22.1929825 195.877193,29.5676692 C195.877193,31.1528822 195.738771,32.3934837 195.600348,33.1516291 Z M173.037515,27.2243108 L187.8487,27.2243108 C187.917911,24.122807 186.533689,19.0225564 180.858375,19.0225564 C175.598328,19.0225564 173.383571,23.7781955 173.037515,27.2243108 Z" id="write"></path>
            <g id="Group" transform="translate(0.000000, 48.245614)">
                <path d="M46.0719948,14.6142054 C56.4682814,14.6142054 63.3991391,21.7821252 63.3991391,32.012069 C63.3991391,44.4689393 54.5969498,50.1754386 45.5175262,50.1754386 C35.6063996,50.1754386 27.9824561,43.6338419 27.9824561,32.6383921 C27.9824561,21.6429423 35.1905482,14.6142054 46.0719948,14.6142054 Z M45.7947605,22.1300825 C40.7352344,22.1300825 38.8639028,27.3494416 38.8639028,32.3600263 C38.8639028,38.2057084 41.289703,42.5899701 45.7947605,42.5899701 C49.8839666,42.5899701 52.5176925,38.4840743 52.5176925,32.3600263 C52.5176925,27.2798501 50.5770523,22.1300825 45.7947605,22.1300825 Z M99.826912,15.3797114 L99.826912,38.4840743 C99.826912,42.9379273 99.9655291,46.556683 100.104146,49.4099326 L90.9554141,49.4099326 L90.470254,44.6081222 L90.2623283,44.6081222 C88.9454653,46.6958659 85.7572708,50.1754386 79.658116,50.1754386 C72.7965668,50.1754386 67.7370407,45.8607684 67.7370407,35.3524588 L67.7370407,15.3797114 L78.341253,15.3797114 L78.341253,33.6822639 C78.341253,38.6232572 79.9353503,41.6156897 83.6087049,41.6156897 C86.5196651,41.6156897 88.183071,39.5975375 88.8761567,37.9273426 C89.1533911,37.3010195 89.2226996,36.4659221 89.2226996,35.6308246 L89.2226996,15.3797114 L99.826912,15.3797114 Z M106.244071,49.4099326 L106.244071,26.5839356 C106.244071,21.5733509 106.105454,18.3025525 105.966837,15.3797114 L115.04626,15.3797114 L115.392803,21.6429423 L115.670037,21.6429423 C117.402752,16.701949 121.561266,14.6142054 124.81877,14.6142054 C125.78909,14.6142054 126.27425,14.6142054 127.036644,14.7533883 L127.036644,24.7049663 C126.27425,24.5657834 125.373238,24.4266005 124.194992,24.4266005 C120.313712,24.4266005 117.679986,26.5143441 116.9869,29.7851425 C116.848283,30.481057 116.778975,31.3161545 116.778975,32.1512519 L116.778975,49.4099326 L106.244071,49.4099326 Z M130.542843,49.4099326 L130.542843,26.2359783 C130.542843,21.9908996 130.404225,18.372144 130.265608,15.3797114 L139.414341,15.3797114 L139.899501,20.0423389 L140.107426,20.0423389 C141.493598,17.8850038 144.959027,14.6142054 150.573021,14.6142054 C157.503879,14.6142054 162.702022,19.2072414 162.702022,29.2284108 L162.702022,49.4099326 L152.167119,49.4099326 L152.167119,30.5506485 C152.167119,26.1663868 150.64233,23.1739543 146.830358,23.1739543 C143.919398,23.1739543 142.186684,25.1921065 141.493598,27.1406672 C141.216364,27.7669903 141.077746,28.8108621 141.077746,29.7851425 L141.077746,49.4099326 L130.542843,49.4099326 Z M197.882241,49.4099326 L188.386966,49.4099326 L187.763189,45.9999513 L187.555263,45.9999513 C185.337388,48.7140181 181.87196,50.1754386 177.852062,50.1754386 C170.990513,50.1754386 166.901307,45.1648539 166.901307,39.7367204 C166.901307,30.8986057 174.802485,26.653527 186.792869,26.7231185 L186.792869,26.2359783 C186.792869,24.4266005 185.822548,21.8517167 180.624405,21.8517167 C177.158976,21.8517167 173.485622,23.0347714 171.267747,24.4266005 L169.327107,17.606638 C171.683599,16.2844003 176.327273,14.6142054 182.495737,14.6142054 C193.793035,14.6142054 197.397081,21.294985 197.397081,29.2980023 L197.397081,41.1285495 C197.397081,44.3993479 197.535698,47.5309633 197.882241,49.4099326 Z M187.139411,37.0226537 L187.139411,33.3343066 C181.594725,33.2647152 177.297593,34.5869528 177.297593,38.6928486 C177.297593,41.4069153 179.099616,42.729153 181.456108,42.729153 C184.089834,42.729153 186.2384,40.9893666 186.931486,38.8320315 C187.070103,38.2752999 187.139411,37.6489768 187.139411,37.0226537 Z M203.675623,49.4099326 L203.675623,0 L214.210526,0 L214.210526,49.4099326 L203.675623,49.4099326 Z" id="ournal"></path>
                <path d="M13.6764632,43.7394033 L13.6764632,14.4736842 L24.122807,14.4736842 L24.122807,43.8774491 C24.122807,57.1298502 17.80002,61.754386 7.62858,61.754386 C5.22317189,61.754386 2.06177838,61.3402484 0,60.6500192 L1.16834108,52.1601998 C2.61158594,52.6433602 4.46718648,52.9884748 6.52896486,52.9884748 C10.9274254,52.9884748 13.6764632,50.9868101 13.6764632,43.7394033 Z" id="J"></path>
            </g>
        </g>
    </g>
</svg>