<svg width="1038" height="728" viewBox="0 0 1038 728" fill="none" xmlns="http://www.w3.org/2000/svg">
<path d="M153.391 628.02C153.391 655.492 137.06 665.085 116.915 665.085C116.446 665.085 115.98 665.08 115.516 665.067C114.583 665.047 113.658 665.006 112.745 664.94C94.5625 663.655 80.4365 653.567 80.4365 628.02C80.4365 601.584 114.215 568.223 116.763 565.746L116.768 565.744C116.865 565.647 116.915 565.599 116.915 565.599C116.915 565.599 153.391 600.547 153.391 628.02Z" fill="#3F3D56"/>
<path d="M115.584 660.881L128.927 642.24L115.551 662.927L115.516 665.067C114.583 665.047 113.658 665.006 112.745 664.94L114.182 637.456L114.172 637.243L114.198 637.203L114.332 634.607L100.923 613.866L114.372 632.66L114.405 633.21L115.493 612.444L104.014 591.014L115.633 608.796L116.763 565.746L116.768 565.599V565.744L116.581 599.692L128.007 586.233L116.532 602.615L116.231 621.208L126.901 603.366L116.185 623.946L116.018 634.282L131.508 609.445L115.96 637.89L115.584 660.881Z" fill="#F2F2F2"/>
<path d="M616.836 469.17C607.089 433.794 552.976 407.72 510.753 400.99V383.997C511.534 383.706 512.31 383.406 513.081 383.098C512.86 379.702 512.178 376.352 511.053 373.14C529.089 365.808 544.663 353.49 555.953 337.628C567.835 325.192 576.79 310.259 582.162 293.92C587.534 277.58 589.188 260.247 587.003 243.187C584.818 226.126 578.849 209.769 569.532 195.311C560.216 180.853 547.787 168.659 533.153 159.62C537.167 157.089 540.284 153.362 542.067 148.965C543.849 144.568 544.205 139.723 543.086 135.112C541.967 130.502 539.429 126.359 535.829 123.268C532.229 120.177 527.75 118.294 523.023 117.885C526.882 108.773 527.573 98.6298 524.986 89.0783C522.398 79.5269 516.682 71.1194 508.751 65.2011C500.82 59.2828 491.133 56.1958 481.24 56.434C471.347 56.6721 461.82 60.2217 454.183 66.5148C460.92 62.9302 468.47 61.1506 476.098 61.3492C483.727 61.5479 491.174 63.7179 497.715 67.6482C504.257 71.5785 509.669 77.1352 513.426 83.7775C517.183 90.4199 519.156 97.9217 519.154 105.553C519.154 105.941 519.131 106.323 519.121 106.709C518.928 100.308 517.347 94.0261 514.487 88.2967C511.627 82.5672 507.556 77.5275 502.557 73.5259C497.558 69.5244 491.749 66.6566 485.532 65.1209C479.315 63.5851 472.839 63.4181 466.552 64.6315C460.264 65.8448 454.315 68.4095 449.116 72.1481C443.917 75.8867 439.593 80.7101 436.441 86.2845C433.29 91.8589 431.387 98.0514 430.864 104.434C430.342 110.816 431.211 117.235 433.414 123.248C430.037 123.978 426.877 125.49 424.19 127.662C421.502 129.833 419.361 132.605 417.939 135.753C416.516 138.902 415.851 142.34 415.997 145.793C416.143 149.245 417.097 152.615 418.781 155.632C402.781 164.039 388.978 176.084 378.482 190.798C367.987 205.513 361.092 222.486 358.353 240.351C355.614 258.216 357.107 276.475 362.711 293.658C368.316 310.841 377.876 326.469 390.622 339.283C401.361 353.754 415.726 365.137 432.268 372.285V400.61C389.597 406.706 333.404 433.264 323.586 469.512C315.029 501.1 305.896 535.791 301.352 556.158C340.304 583.529 422.038 599.6 473.261 599.6C521.929 599.6 601.475 585.094 639.281 560.172C635.186 537.793 625.764 501.579 616.836 469.17ZM538.807 142.402C538.807 142.804 538.79 143.203 538.769 143.6C538.483 138.605 536.512 133.854 533.177 130.124C529.842 126.395 525.341 123.906 520.408 123.065C520.836 122.34 521.245 121.603 521.633 120.852C526.512 121.97 530.867 124.711 533.987 128.625C537.106 132.539 538.805 137.396 538.807 142.402V142.402Z" fill="url(#paint0_linear)"/>
<path d="M473.178 591.864C520.459 591.864 597.74 577.772 634.468 553.559C630.49 531.817 621.337 496.635 612.662 465.149C601.615 425.051 531.892 397.251 490.299 397.251H450.219C408.497 397.251 338.674 425.212 327.766 465.482C319.453 496.17 310.58 529.873 306.165 549.66C344.007 576.251 423.413 591.864 473.178 591.864Z" fill="#FFB8B8"/>
<path d="M472.417 372.03C534.368 372.03 584.588 321.81 584.588 259.859C584.588 197.909 534.368 147.689 472.417 147.689C410.467 147.689 360.247 197.909 360.247 259.859C360.247 321.81 410.467 372.03 472.417 372.03Z" fill="#2F2E41"/>
<path d="M442.133 337.829H500.82C503.149 337.829 505.383 338.754 507.03 340.401C508.676 342.048 509.602 344.281 509.602 346.61V406.617C509.602 411.352 508.669 416.041 506.857 420.415C505.045 424.79 502.389 428.764 499.041 432.112C495.693 435.46 491.719 438.116 487.344 439.928C482.97 441.74 478.281 442.673 473.546 442.673H469.407C464.672 442.673 459.983 441.74 455.609 439.928C451.235 438.116 447.26 435.46 443.912 432.112C440.564 428.764 437.908 424.79 436.096 420.415C434.284 416.041 433.352 411.352 433.352 406.617V346.61C433.352 345.457 433.579 344.315 434.02 343.25C434.461 342.184 435.108 341.216 435.924 340.401C436.739 339.585 437.707 338.939 438.772 338.497C439.838 338.056 440.98 337.829 442.133 337.829V337.829Z" fill="#FDA57D"/>
<path opacity="0.05" d="M474.999 388.633C487.628 388.64 500.141 386.229 511.863 381.529C511.263 372.271 507.163 363.589 500.395 357.243C493.627 350.897 484.699 347.364 475.422 347.36H472.297C463.173 347.362 454.381 350.776 447.646 356.93C440.912 363.085 436.722 371.535 435.901 380.622C448.254 385.921 461.557 388.647 474.999 388.633V388.633Z" fill="black"/>
<path d="M472.616 379.102C527.423 379.102 571.853 334.672 571.853 279.865C571.853 225.057 527.423 180.628 472.616 180.628C417.809 180.628 373.379 225.057 373.379 279.865C373.379 334.672 417.809 379.102 472.616 379.102Z" fill="#FDA57D"/>
<path fill-rule="evenodd" clip-rule="evenodd" d="M516.775 285.306C511.064 286.406 505.937 290.289 503.01 293.634C501.556 295.297 499.029 295.465 497.366 294.01C495.704 292.556 495.535 290.029 496.99 288.366C500.666 284.164 507.262 278.992 515.262 277.451C523.672 275.831 532.978 278.364 541.118 288.494C542.502 290.217 542.228 292.734 540.506 294.118C538.784 295.502 536.266 295.228 534.882 293.506C528.469 285.525 522.077 284.285 516.775 285.306Z" fill="black"/>
<path fill-rule="evenodd" clip-rule="evenodd" d="M424.775 285.306C419.064 286.406 413.937 290.289 411.01 293.634C409.556 295.297 407.029 295.465 405.366 294.01C403.704 292.556 403.535 290.029 404.99 288.366C408.666 284.164 415.262 278.992 423.262 277.451C431.672 275.831 440.978 278.364 449.118 288.494C450.502 290.217 450.228 292.734 448.506 294.118C446.784 295.502 444.266 295.228 442.882 293.506C436.469 285.525 430.077 284.285 424.775 285.306Z" fill="black"/>
<path d="M439.004 171.555C450.867 171.555 460.484 161.938 460.484 150.075C460.484 138.212 450.867 128.596 439.004 128.596C427.142 128.596 417.525 138.212 417.525 150.075C417.525 161.938 427.142 171.555 439.004 171.555Z" fill="#2F2E41"/>
<path d="M515.376 171.555C527.239 171.555 536.856 161.938 536.856 150.075C536.856 138.212 527.239 128.596 515.376 128.596C503.513 128.596 493.896 138.212 493.896 150.075C493.896 161.938 503.513 171.555 515.376 171.555Z" fill="#2F2E41"/>
<path d="M474.804 157.236C498.529 157.236 517.763 138.002 517.763 114.277C517.763 90.551 498.529 71.3176 474.804 71.3176C451.078 71.3176 431.845 90.551 431.845 114.277C431.845 138.002 451.078 157.236 474.804 157.236Z" fill="#2F2E41"/>
<path d="M520.149 123.823C515.878 123.816 511.703 125.089 508.162 127.478C513.09 125.717 518.491 125.817 523.351 127.758C528.21 129.7 532.194 133.349 534.552 138.02C536.91 142.692 537.481 148.064 536.157 153.127C534.833 158.19 531.706 162.595 527.363 165.514C532.131 163.816 536.145 160.488 538.698 156.118C541.251 151.748 542.177 146.617 541.314 141.63C540.452 136.643 537.855 132.122 533.982 128.864C530.109 125.605 525.21 123.82 520.149 123.823V123.823Z" fill="#2F2E41"/>
<path d="M481.963 64.1576C471.992 64.1425 462.328 67.611 454.642 73.9638C464.044 68.9654 474.967 67.637 485.293 70.2363C495.619 72.8356 504.611 79.1774 510.526 88.0316C516.441 96.8857 518.856 107.621 517.304 118.155C515.751 128.689 510.342 138.272 502.124 145.043C510.589 140.545 517.306 133.345 521.206 124.589C525.106 115.833 525.965 106.024 523.647 96.7231C521.329 87.4222 515.966 79.164 508.413 73.2628C500.859 67.3616 491.549 64.1565 481.963 64.1576V64.1576Z" fill="#2F2E41"/>
<path d="M400.819 190.648C400.819 190.648 412.752 269.406 563.109 226.447L489.124 162.009L400.819 190.648Z" fill="#2F2E41"/>
<path d="M148.391 641.683H86.61C75.1209 641.683 65.8071 650.997 65.8071 662.486V664.874C65.8071 676.364 75.1209 685.677 86.61 685.677H148.391C159.88 685.677 169.194 676.364 169.194 664.874V662.486C169.194 650.997 159.88 641.683 148.391 641.683Z" fill="#FFB8B8"/>
<g opacity="0.7">
<path opacity="0.7" d="M865.933 613.58V597.727H786.67V671.045C786.67 675.145 788.298 679.076 791.197 681.975C794.096 684.873 798.027 686.502 802.126 686.502H850.477C854.576 686.502 858.507 684.873 861.406 681.975C864.305 679.076 865.933 675.145 865.933 671.045V654.796C871.399 654.796 876.641 652.625 880.506 648.76C884.37 644.896 886.542 639.654 886.542 634.188C886.542 628.722 884.37 623.481 880.506 619.616C876.641 615.751 871.399 613.58 865.933 613.58V613.58ZM865.933 646.87V621.506C869.294 621.51 872.516 622.847 874.892 625.225C877.267 627.603 878.602 630.827 878.602 634.188C878.602 637.549 877.267 640.773 874.892 643.151C872.516 645.529 869.294 646.867 865.933 646.87V646.87Z" fill="url(#paint1_linear)"/>
</g>
<path d="M863.383 616.061C859.661 616.061 856.023 617.165 852.929 619.232C849.835 621.3 847.423 624.238 845.999 627.677C844.575 631.115 844.202 634.898 844.928 638.548C845.654 642.198 847.446 645.551 850.078 648.183C852.709 650.814 856.062 652.606 859.712 653.332C863.362 654.058 867.145 653.686 870.583 652.261C874.022 650.837 876.96 648.426 879.028 645.331C881.096 642.237 882.199 638.599 882.199 634.877C882.199 632.406 881.712 629.96 880.767 627.677C879.821 625.394 878.435 623.32 876.688 621.572C874.941 619.825 872.866 618.439 870.583 617.493C868.301 616.548 865.854 616.061 863.383 616.061ZM863.383 646.457C861.093 646.457 858.854 645.778 856.95 644.505C855.045 643.233 853.561 641.424 852.685 639.309C851.808 637.193 851.579 634.865 852.026 632.618C852.473 630.372 853.576 628.309 855.195 626.69C856.814 625.07 858.878 623.967 861.124 623.521C863.37 623.074 865.698 623.303 867.814 624.18C869.93 625.056 871.738 626.54 873.011 628.444C874.283 630.348 874.962 632.587 874.962 634.877C874.962 637.948 873.742 640.894 871.571 643.065C869.399 645.237 866.454 646.457 863.383 646.457Z" fill="#FFB8B8"/>
<path opacity="0.1" d="M863.383 616.061C859.661 616.061 856.023 617.165 852.929 619.232C849.835 621.3 847.423 624.238 845.999 627.677C844.575 631.115 844.202 634.898 844.928 638.548C845.654 642.198 847.446 645.551 850.078 648.183C852.709 650.814 856.062 652.606 859.712 653.332C863.362 654.058 867.145 653.686 870.583 652.261C874.022 650.837 876.96 648.426 879.028 645.331C881.096 642.237 882.199 638.599 882.199 634.877C882.199 632.406 881.712 629.96 880.767 627.677C879.821 625.394 878.435 623.32 876.688 621.572C874.941 619.825 872.866 618.439 870.583 617.493C868.301 616.548 865.854 616.061 863.383 616.061ZM863.383 646.457C861.093 646.457 858.854 645.778 856.95 644.505C855.045 643.233 853.561 641.424 852.685 639.309C851.808 637.193 851.579 634.865 852.026 632.618C852.473 630.372 853.576 628.309 855.195 626.69C856.814 625.07 858.878 623.967 861.124 623.521C863.37 623.074 865.698 623.303 867.814 624.18C869.93 625.056 871.738 626.54 873.011 628.444C874.283 630.348 874.962 632.587 874.962 634.877C874.962 637.948 873.742 640.894 871.571 643.065C869.399 645.237 866.454 646.457 863.383 646.457Z" fill="black"/>
<path d="M791.012 601.587H863.382V668.456C863.382 672.218 861.888 675.827 859.227 678.487C856.567 681.147 852.958 682.642 849.196 682.642H805.198C801.436 682.642 797.827 681.147 795.167 678.487C792.506 675.827 791.012 672.218 791.012 668.456V601.587Z" fill="#FFB8B8"/>
<path d="M939.372 682.642H0V714.485H939.372V682.642Z" fill="#E0E0E0"/>
<g opacity="0.7">
<path opacity="0.7" d="M648.332 452.601H291.041C279.389 452.601 269.943 462.047 269.943 473.699V661.544C269.943 673.196 279.389 682.642 291.041 682.642H648.332C659.984 682.642 669.429 673.196 669.429 661.544V473.699C669.429 462.047 659.984 452.601 648.332 452.601Z" fill="url(#paint2_linear)"/>
</g>
<path d="M623.147 456.846H316.226C294.661 456.846 277.18 474.327 277.18 495.891V643.597C277.18 665.161 294.661 682.642 316.226 682.642H623.147C644.711 682.642 662.193 665.161 662.193 643.597V495.891C662.193 474.327 644.711 456.846 623.147 456.846Z" fill="#535461"/>
<path d="M469.686 582.771C476.88 582.771 482.713 576.938 482.713 569.744C482.713 562.549 476.88 556.717 469.686 556.717C462.491 556.717 456.659 562.549 456.659 569.744C456.659 576.938 462.491 582.771 469.686 582.771Z" fill="white"/>
<path d="M899.568 714.485H39.8037V727.511H899.568V714.485Z" fill="#E0E0E0"/>
<path opacity="0.1" d="M899.568 714.485H39.8037V718.827H899.568V714.485Z" fill="black"/>
<path opacity="0.1" d="M850.356 601.587V668.53C850.356 672.273 848.869 675.862 846.223 678.509C843.576 681.155 839.986 682.642 836.244 682.642H843.481C847.223 682.642 850.813 681.155 853.46 678.509C856.106 675.862 857.593 672.273 857.593 668.53V601.587H850.356Z" fill="black"/>
<path d="M805.294 547.632C804.675 547.652 804.068 547.807 803.515 548.088C802.963 548.368 802.479 548.766 802.098 549.255C801.149 550.976 802.869 552.916 804.439 554.098C807.339 556.283 810.396 558.429 812.367 561.478C814.339 564.528 814.958 568.783 812.803 571.705C809.989 575.521 803.276 576.342 802.626 581.038C802.209 584.053 804.816 586.626 807.457 588.139C813.976 591.873 822.379 592.869 827.101 598.712C829.054 594.696 833.424 592.374 837.779 591.382C842.134 590.391 846.658 590.465 851.074 589.792C851.795 589.778 852.503 589.595 853.14 589.257C853.778 588.919 854.326 588.436 854.742 587.846C855.977 585.342 852.459 582.337 853.673 579.822C854.597 577.908 857.312 578.057 859.294 577.291C862.522 576.042 863.853 571.888 862.937 568.551C862.021 565.214 859.433 562.605 856.712 560.467C849.378 554.704 840.56 551.315 831.64 548.878C827.492 547.744 822.622 545.966 818.314 545.794C814.154 545.628 809.411 546.928 805.294 547.632Z" fill="#EEEEEE"/>
<path d="M634.39 194.973C634.39 302.654 721.683 389.946 829.363 389.946C937.044 389.946 1024.34 302.654 1024.34 194.973C1024.34 87.2925 937.044 0 829.363 0C721.683 0 634.39 87.2925 634.39 194.973Z" fill="#F5F0F7"/>
<path d="M659.449 235.703C675.617 265.687 709.93 278.558 709.93 278.558C709.93 278.558 718.031 242.816 701.863 212.833C685.696 182.85 651.382 169.979 651.382 169.979C651.382 169.979 643.282 205.72 659.449 235.703Z" fill="#2F2E41"/>
<path d="M670.562 225.84C699.751 243.401 710.993 278.282 710.993 278.282C710.993 278.282 674.91 284.691 645.721 267.13C616.532 249.569 605.29 214.688 605.29 214.688C605.29 214.688 641.373 208.279 670.562 225.84Z" fill="#FFB8B8"/>
<path d="M889.609 158.876H674.751V163.479H889.609V158.876Z" fill="#3F3D56"/>
<path d="M889.609 181.892H674.751V186.496H889.609V181.892Z" fill="#3F3D56"/>
<path d="M889.609 203.758H674.751V210.662H889.609V203.758Z" fill="#3F3D56"/>
<path d="M708.336 144.891L708.011 278.227L712.786 278.239L713.111 144.902L708.336 144.891Z" fill="#3F3D56"/>
<path d="M849.188 145.234L848.863 278.571L853.637 278.582L853.962 145.245L849.188 145.234Z" fill="#3F3D56"/>
<path d="M1032.64 127.907C1026.2 134.4 1010.67 139.544 1004.17 133.109C997.682 126.674 1002.69 111.095 1009.13 104.603C1012.22 101.485 1016.42 99.7229 1020.81 99.7035C1025.2 99.6842 1029.41 101.409 1032.53 104.5C1035.65 107.59 1037.41 111.792 1037.43 116.182C1037.45 120.572 1035.73 124.79 1032.64 127.907V127.907Z" fill="#FFB8B8"/>
<path d="M1004.18 135.364C1004.09 134.8 1003.82 134.281 1003.41 133.878C1003.01 133.475 1002.48 133.209 1001.92 133.118L1004.16 130.852L1006.43 133.098L1004.18 135.364Z" fill="#FFB8B8"/>
<path d="M1005.3 134.412C1004.74 134.235 1004.22 133.925 1003.8 133.509C1003.37 133.092 1003.05 132.581 1002.87 132.017L1003.32 131.869C1003.49 132.36 1003.76 132.806 1004.13 133.169C1004.5 133.532 1004.95 133.801 1005.45 133.956L1005.3 134.412Z" fill="#2F2E41"/>
<path d="M956.029 181.896L955.69 181.559L1003.57 133.488L1003.91 133.825L956.029 181.896Z" fill="#2F2E41"/>
<path opacity="0.4" d="M1033.16 118.597C1034.79 116.955 1035 114.523 1033.63 113.166C1032.26 111.809 1029.83 112.041 1028.2 113.684C1026.57 115.326 1026.36 117.758 1027.73 119.115C1029.1 120.471 1031.53 120.24 1033.16 118.597Z" fill="white"/>
<path d="M1011.63 110.202C1007.33 118.268 993.93 127.656 985.863 123.355C977.797 119.055 978.121 102.694 982.422 94.6278C984.487 90.7541 988.007 87.8595 992.206 86.5808C996.405 85.302 1000.94 85.7438 1004.81 87.8091C1008.69 89.8743 1011.58 93.3937 1012.86 97.5931C1014.14 101.793 1013.7 106.328 1011.63 110.202V110.202Z" fill="#FFB8B8"/>
<path d="M986.521 125.514C986.267 125.002 985.859 124.581 985.354 124.312C984.849 124.043 984.272 123.939 983.705 124.013L985.206 121.198L988.022 122.699L986.521 125.514Z" fill="#FFB8B8"/>
<path d="M987.319 124.28C986.725 124.273 986.141 124.124 985.616 123.847C985.091 123.57 984.64 123.171 984.299 122.685L984.691 122.412C984.989 122.836 985.383 123.183 985.841 123.425C986.299 123.667 986.808 123.796 987.325 123.802L987.319 124.28Z" fill="#2F2E41"/>
<path d="M953.752 183.911L953.33 183.686L985.395 123.892L985.817 124.117L953.752 183.911Z" fill="#2F2E41"/>
<path opacity="0.4" d="M1009.46 101.135C1010.55 99.0937 1010.05 96.7042 1008.35 95.7974C1006.65 94.8907 1004.39 95.8101 1003.3 97.851C1002.21 99.8919 1002.71 102.281 1004.41 103.188C1006.11 104.095 1008.37 103.176 1009.46 101.135Z" fill="white"/>
<path d="M1001.07 155.167C994.636 161.659 979.102 166.804 972.61 160.369C966.118 153.934 971.125 138.355 977.561 131.863C979.091 130.319 980.91 129.092 982.915 128.251C984.919 127.41 987.07 126.973 989.243 126.963C991.417 126.954 993.571 127.372 995.583 128.195C997.595 129.018 999.425 130.229 1000.97 131.76C1002.51 133.29 1003.74 135.109 1004.58 137.114C1005.42 139.118 1005.86 141.268 1005.87 143.442C1005.88 145.616 1005.46 147.77 1004.64 149.782C1003.81 151.793 1002.6 153.623 1001.07 155.167V155.167Z" fill="#FFB8B8"/>
<path d="M972.619 162.625C972.523 162.061 972.253 161.541 971.846 161.138C971.44 160.735 970.918 160.47 970.353 160.379L972.599 158.113L974.865 160.359L972.619 162.625Z" fill="#FFB8B8"/>
<path d="M973.737 161.673C973.17 161.495 972.654 161.185 972.231 160.769C971.807 160.353 971.489 159.842 971.302 159.278L971.757 159.129C971.92 159.621 972.198 160.066 972.567 160.429C972.936 160.792 973.387 161.062 973.881 161.217L973.737 161.673Z" fill="#2F2E41"/>
<path d="M972.01 160.751L950.666 182.273L951.006 182.61L972.35 161.088L972.01 160.751Z" fill="#2F2E41"/>
<path opacity="0.4" d="M1001.59 145.859C1003.22 144.216 1003.43 141.784 1002.06 140.428C1000.69 139.071 998.265 139.302 996.637 140.945C995.008 142.588 994.798 145.019 996.167 146.376C997.536 147.733 999.965 147.501 1001.59 145.859Z" fill="white"/>
<path d="M933.772 85.1653C928.905 76.9424 919.277 76.5592 919.277 76.5592C919.277 76.5592 909.895 75.3595 903.877 87.883C898.267 99.556 890.525 110.827 902.631 113.559L904.817 106.754L906.171 114.066C907.895 114.19 909.624 114.219 911.351 114.154C924.314 113.736 936.661 114.277 936.263 109.625C935.735 103.441 938.454 93.0774 933.772 85.1653Z" fill="#2F2E41"/>
<path d="M922.617 265.478C922.197 267.353 921.447 269.178 921.407 271.099C921.367 273.019 922.294 275.159 924.132 275.72C925.01 275.919 925.921 275.927 926.803 275.743C927.776 275.611 928.81 275.453 929.549 274.807C930.586 273.9 930.706 272.354 930.715 270.976C930.762 264.123 929.928 257.297 929.096 250.495C929.084 250.39 924.634 250.286 924.187 250.491C922.89 251.086 923.007 252.549 922.99 253.791C922.936 257.685 923.477 261.634 922.617 265.478Z" fill="#2F2E41"/>
<path d="M892.428 265.478C892.848 267.353 893.598 269.178 893.638 271.099C893.678 273.019 892.751 275.159 890.913 275.72C890.035 275.919 889.124 275.927 888.242 275.743C887.269 275.611 886.235 275.453 885.496 274.807C884.459 273.9 884.339 272.354 884.33 270.976C884.283 264.123 885.116 257.297 885.949 250.495C885.961 250.39 890.411 250.286 890.858 250.491C892.155 251.086 892.038 252.549 892.055 253.791C892.109 257.685 891.567 261.634 892.428 265.478Z" fill="#2F2E41"/>
<path d="M907.326 160.174C909.489 161.207 911.964 161.342 914.362 161.315C919.674 161.255 924.955 160.496 930.069 159.056C931.049 158.824 931.988 158.444 932.854 157.93C933.072 157.813 933.245 157.626 933.343 157.399C933.388 157.216 933.389 157.026 933.347 156.843L932.518 151.327C932.526 151.222 932.509 151.116 932.468 151.019C932.427 150.922 932.363 150.836 932.282 150.768C932.201 150.7 932.105 150.653 932.002 150.63C931.898 150.607 931.791 150.609 931.689 150.636C927.185 150.656 922.686 150.92 918.211 151.426C915.937 151.683 913.671 152.002 911.414 152.384C910.219 152.586 906.746 152.625 906.142 153.902C905.782 154.661 906.509 155.998 906.693 156.738C906.796 157.148 907.079 160.056 907.326 160.174Z" fill="#FDA57D"/>
<path d="M917.427 158.811C913.624 158.669 909.871 157.91 906.313 156.561C906.157 156.502 905.953 156.453 905.846 156.58C905.802 156.644 905.777 156.718 905.774 156.795L904.861 163.696C903.913 170.854 901.415 177.93 899.782 184.963C898.78 189.28 897.777 193.597 896.73 197.904C895.663 202.29 894.549 206.669 893.14 210.958C889.279 222.69 883.267 233.601 875.412 243.133C874.505 244.233 873.515 245.501 873.702 246.914C873.944 248.746 875.957 249.7 877.694 250.329C876.087 251.039 876.187 253.574 877.47 254.775C878.753 255.975 880.64 256.2 882.389 256.365L888.374 256.93C889.905 257.075 891.516 257.208 892.924 256.587C893.833 256.186 894.586 255.498 895.469 255.041C898.589 253.425 902.311 255.001 905.63 256.157C910.26 257.768 915.143 258.532 920.044 258.412C922.092 258.361 924.481 257.936 925.415 256.113C925.776 255.409 925.855 254.594 926.158 253.864C926.386 253.378 926.707 252.943 927.105 252.582C927.502 252.222 927.966 251.944 928.472 251.764C928.977 251.585 929.513 251.507 930.048 251.537C930.584 251.566 931.108 251.701 931.591 251.934C933.286 252.847 934.101 254.878 935.709 255.938C937.001 256.79 938.626 256.905 940.17 256.994L948.958 257.5C949.301 256.886 949.463 256.187 949.425 255.485C949.387 254.782 949.15 254.105 948.743 253.532C950.441 253.564 952.112 253.1 953.551 252.197C954.989 251.295 956.134 249.992 956.845 248.449C957.555 246.907 957.801 245.19 957.552 243.51C957.302 241.83 956.569 240.259 955.441 238.989C954.195 237.588 953.282 235.925 952.768 234.123C949.909 223.416 949.669 212.16 947.036 201.396C946.509 199.24 945.886 197.103 945.551 194.909C945.128 192.133 945.174 189.31 945.066 186.504C944.811 179.9 943.705 173.356 941.774 167.036C940.47 162.77 938.748 158.544 935.894 155.116C935.193 154.185 934.286 153.43 933.244 152.909C932.18 152.445 930.853 152.439 929.936 153.151C929.406 153.563 929.061 154.166 928.598 154.653C927.6 155.702 926.135 156.138 924.742 156.531C921.935 157.324 920.341 158.918 917.427 158.811Z" fill="#3F3D56"/>
<path d="M892.923 157.521C892.742 158.431 892.535 159.336 892.328 160.24C891.085 165.648 889.8 171.046 888.473 176.434C888.243 177.532 887.897 178.603 887.44 179.628C886.612 181.326 885.209 182.677 884.267 184.315C883.326 185.952 882.937 188.182 884.15 189.63C884.926 190.556 886.163 190.933 887.334 191.229C888.447 191.51 889.711 191.736 890.672 191.109C891.695 190.441 891.961 189.083 892.11 187.87C892.745 182.723 892.918 177.48 894.339 172.492C894.813 170.825 895.424 169.202 896.033 167.58L899.636 157.996C900.535 155.605 901.446 153.15 901.455 150.596C901.483 150.352 901.461 150.104 901.389 149.869C901.317 149.634 901.197 149.416 901.038 149.23C900.847 149.076 900.627 148.964 900.39 148.902C898.87 148.412 894.969 148.011 893.942 149.677C893.435 150.498 893.681 152.397 893.572 153.361C893.414 154.756 893.198 156.143 892.923 157.521Z" fill="#FDA57D"/>
<path d="M938.026 151.671C940.414 158.431 943.055 165.095 945.949 171.662C946.317 172.438 946.623 173.242 946.865 174.066C947.059 174.8 947.146 175.557 947.273 176.306C947.929 180.203 949.846 184.112 953.27 186.084C953.865 186.475 954.561 186.685 955.273 186.689C956.687 186.607 957.694 185.232 958.083 183.87C958.354 182.917 958.429 181.918 958.304 180.935C958.291 180.684 958.206 180.442 958.06 180.237C957.888 180.066 957.678 179.941 957.446 179.871C955.355 179.042 953.222 177.888 952.167 175.901C951.703 174.911 951.386 173.859 951.227 172.777L949.185 162.4C948.942 161.166 948.699 159.93 948.363 158.719C948.089 157.726 947.753 156.752 947.417 155.779L945.186 149.313L943.544 144.553C943.533 144.457 943.503 144.364 943.455 144.281C943.406 144.197 943.341 144.124 943.264 144.067C943.186 144.009 943.097 143.969 943.003 143.947C942.908 143.926 942.811 143.925 942.716 143.943L938.122 143.939C935.075 143.936 937.465 150.083 938.026 151.671Z" fill="#FDA57D"/>
<path d="M916.61 105.991C922.42 105.991 927.131 101.28 927.131 95.4694C927.131 89.6584 922.42 84.9478 916.61 84.9478C910.799 84.9478 906.088 89.6584 906.088 95.4694C906.088 101.28 910.799 105.991 916.61 105.991Z" fill="#FDA57D"/>
<path d="M911.085 108.25C910.484 109.178 909.502 109.778 908.553 110.346C906.774 111.485 904.897 112.462 902.944 113.265C901.185 113.927 899.286 114.325 897.756 115.416C896.151 116.561 895.118 118.372 894.552 120.26C893.985 122.149 893.842 124.135 893.701 126.101C893.642 126.507 893.675 126.921 893.798 127.312C894.034 127.896 894.635 128.237 895.211 128.492C898.144 129.788 901.43 129.984 904.634 130.107C911.05 130.354 917.471 130.387 923.891 130.42C926.391 130.59 928.897 130.172 931.206 129.199L935.604 127.619C936.224 127.428 936.813 127.152 937.356 126.798C939.217 125.454 939.287 122.694 938.71 120.473C938.272 118.786 937.492 117.075 936.03 116.127C935.184 115.652 934.277 115.294 933.334 115.062C930.192 114.076 927.257 112.522 924.676 110.477C924.053 110.027 923.516 109.47 923.089 108.831C922.301 107.526 922.403 105.896 922.402 104.372C922.431 104.133 922.412 103.89 922.344 103.659C922.276 103.428 922.162 103.213 922.008 103.028C921.699 102.803 921.325 102.682 920.942 102.683C918.446 102.435 915.858 102.246 913.399 102.87C911.869 103.258 911.718 103.344 911.78 104.841C911.829 106.013 911.741 107.239 911.085 108.25Z" fill="#FDA57D"/>
<path d="M931.621 84.3729L922.109 79.3906L908.974 81.4289L906.256 93.4321L913.021 93.1721L914.911 88.7619V93.0993L918.033 92.9791L919.845 85.9585L920.977 93.4321L932.074 93.2056L931.621 84.3729Z" fill="#2F2E41"/>
<path opacity="0.1" d="M920.241 129.44C919.819 123.052 912.018 122.496 911.939 122.491L911.954 122.252C912.029 122.257 918.985 122.75 920.288 128.152C920.467 126.133 921.253 122.429 924.614 122.252L924.627 122.491C920.254 122.721 920.477 129.36 920.48 129.427L920.241 129.44Z" fill="black"/>
<path d="M917.963 127.596L894.239 122.934C894.117 122.886 893.987 122.867 893.857 122.876C893.726 122.885 893.6 122.922 893.486 122.986C893.372 123.049 893.273 123.137 893.197 123.243C893.12 123.349 893.069 123.471 893.045 123.599L892.185 125.378C891.43 126.752 890.977 128.271 890.854 129.833L890.326 133.804C890.3 134.473 890.083 135.121 889.699 135.67C889.441 135.941 889.14 136.166 888.807 136.337C888.007 136.731 887.284 137.264 886.669 137.91C886.102 138.596 885.822 139.603 886.24 140.389C886.914 141.658 888.832 141.606 889.821 142.648C890.732 143.608 890.555 145.171 890.03 146.385C889.691 147.17 889.223 147.95 889.263 148.803C889.317 149.281 889.491 149.738 889.77 150.13C890.049 150.522 890.423 150.837 890.856 151.044C891.728 151.45 892.671 151.682 893.632 151.727C895.669 151.933 897.718 151.992 899.764 151.906C900.793 151.92 901.814 151.722 902.762 151.324C903.683 150.872 904.454 149.976 904.47 148.95C904.498 147.26 902.577 145.923 902.82 144.25C902.837 144.084 902.897 143.926 902.996 143.792C903.325 143.387 903.97 143.553 904.473 143.414C905.272 143.193 905.602 142.18 905.424 141.37C905.246 140.559 904.718 139.879 904.316 139.153C903.6 137.862 903.285 136.385 903.414 134.914C905.238 135.36 902.879 137.042 903.138 138.902C903.774 143.467 905.829 148.686 905.003 153.221C904.936 153.422 904.914 153.634 904.939 153.845C904.963 154.055 905.033 154.257 905.144 154.437C905.314 154.605 905.527 154.723 905.759 154.778C908.781 155.726 911.988 154.456 915.101 153.872C917.272 153.513 919.469 153.349 921.669 153.381C924.913 153.358 928.155 153.453 931.395 153.666C932.212 153.72 933.071 153.773 933.811 153.423C934.551 153.073 935.096 152.164 934.753 151.421C937.302 151.372 939.701 152.977 942.242 152.762C944.98 152.531 947.06 150.295 948.854 148.213C949.352 147.728 949.711 147.118 949.892 146.447C950.024 145.682 949.69 144.924 949.432 144.192C949.143 143.375 948.943 142.53 948.833 141.671C948.717 141.134 948.782 140.573 949.016 140.077C949.347 139.517 950.026 139.255 950.418 138.736C951.209 137.687 950.475 136.131 949.438 135.324C948.401 134.517 947.085 134.077 946.179 133.126C944.912 131.795 944.733 129.806 944.416 127.995C944.135 126.399 943.666 124.773 942.6 123.551C941.535 122.33 939.745 121.622 938.24 122.223C937.778 122.443 937.329 122.689 936.894 122.958C936.003 123.383 935.059 123.687 934.087 123.861C928.677 125.082 923.404 128.665 917.963 127.596Z" fill="#FF6584"/>
<path d="M882.881 181.618C882.881 181.618 895.296 186.765 891.36 189.793C887.423 192.821 879.248 186.16 879.551 185.251C879.853 184.343 878.339 182.223 878.339 182.223L882.881 181.618Z" fill="#9F616A"/>
<path d="M871.981 141.042L875.918 144.675L876.826 155.273L879.854 166.477C879.854 166.477 885.002 177.075 884.093 179.195C883.185 181.314 885.002 181.92 885.002 181.92L878.037 184.645C878.037 184.645 870.467 176.167 870.467 174.35C870.467 172.533 871.981 141.042 871.981 141.042Z" fill="#575A88"/>
<path opacity="0.1" d="M871.981 141.042L875.918 144.675L876.826 155.273L879.854 166.477C879.854 166.477 885.002 177.075 884.093 179.195C883.185 181.314 885.002 181.92 885.002 181.92L878.037 184.645C878.037 184.645 870.467 176.167 870.467 174.35C870.467 172.533 871.981 141.042 871.981 141.042Z" fill="black"/>
<path d="M909.225 258.898C909.225 258.898 907.711 265.862 907.408 266.468C907.106 267.073 913.162 269.193 913.162 269.193L920.429 264.045C920.429 264.045 917.401 257.384 917.401 256.172L909.225 258.898Z" fill="#575A88"/>
<path d="M869.559 182.222L871.678 184.644C871.678 184.644 915.584 190.095 916.493 198.573C917.401 207.052 923.76 255.868 920.126 257.08C916.493 258.291 907.106 262.833 907.106 260.41C907.106 257.988 901.05 215.833 902.261 209.777C902.261 209.777 849.877 203.115 848.665 195.545C847.454 187.975 849.877 184.644 849.877 184.644L869.559 182.222Z" fill="#2F2E41"/>
<path opacity="0.1" d="M869.559 182.222L871.678 184.644C871.678 184.644 915.584 190.095 916.493 198.573C917.401 207.052 923.76 255.868 920.126 257.08C916.493 258.291 907.106 262.833 907.106 260.41C907.106 257.988 901.05 215.833 902.261 209.777C902.261 209.777 849.877 203.115 848.665 195.545C847.454 187.975 849.877 184.644 849.877 184.644L869.559 182.222Z" fill="black"/>
<path d="M908.619 265.862C908.619 265.862 907.408 263.137 906.803 264.045C906.197 264.954 904.077 275.552 906.197 275.552C908.317 275.552 927.696 280.397 930.421 279.791C933.146 279.185 938.294 280.094 937.688 277.066C937.083 274.038 934.055 273.735 934.055 273.735C934.055 273.735 922.851 267.073 922.245 263.742C921.64 260.412 918.309 262.228 918.309 262.228V264.348C918.309 264.348 911.95 269.193 908.619 265.862Z" fill="#2F2E41"/>
<path d="M851.088 118.029C851.088 118.029 853.207 128.324 848.665 129.232C844.123 130.141 854.419 136.197 854.419 136.197L861.08 139.83L865.925 134.985C865.925 134.985 861.534 126.053 864.865 119.391C868.196 112.73 851.088 118.029 851.088 118.029Z" fill="#9F616A"/>
<path d="M865.925 134.985L861.08 139.83L854.419 136.197C854.419 136.197 844.123 130.141 848.665 129.232C851.587 128.648 851.751 124.178 851.5 121.066C851.418 120.047 851.28 119.033 851.088 118.029C851.088 118.029 868.196 112.73 864.865 119.391C864.359 120.42 864.008 121.518 863.824 122.649C862.803 128.636 865.925 134.985 865.925 134.985Z" fill="#9F616A"/>
<path d="M882.881 258.832V265.796H894.388L895.296 263.071L894.085 255.804L882.881 258.832Z" fill="#575A88"/>
<path d="M835.342 188.278C835.342 188.278 835.342 206.143 842.61 206.749C849.877 207.355 875.918 210.685 875.918 210.685C875.918 210.685 877.432 240.36 880.157 250.05C882.882 259.739 880.46 260.345 882.882 260.95C885.305 261.556 895.6 259.436 895.297 257.317C894.994 255.197 893.783 201.601 893.783 201.601C893.783 201.601 896.508 190.095 860.172 184.645L835.342 188.278Z" fill="#2F2E41"/>
<path d="M883.791 263.677C883.791 263.677 881.974 259.74 881.671 260.951C881.368 262.163 877.734 272.761 881.368 273.669C885.002 274.577 896.508 279.422 904.078 279.119C911.648 278.817 912.557 278.514 912.557 278.514C912.557 278.514 914.676 275.486 911.951 273.669C909.226 271.852 898.022 261.254 897.417 260.043C896.811 258.832 892.269 257.923 892.269 260.043C892.269 262.163 885.91 266.402 883.791 263.677Z" fill="#2F2E41"/>
<path opacity="0.1" d="M864.865 121.845C864.359 122.874 864.008 123.972 863.824 125.103C862.316 126.015 861.307 125.781 859.415 125.781C856.608 125.781 855.475 122.193 853.662 120.331C853.519 118.602 851.088 120.482 851.088 120.482C851.088 120.482 868.196 115.183 864.865 121.845Z" fill="black"/>
<path d="M859.011 125.179C865.415 125.179 870.607 119.987 870.607 113.582C870.607 107.178 865.415 101.986 859.011 101.986C852.606 101.986 847.415 107.178 847.415 113.582C847.415 119.987 852.606 125.179 859.011 125.179Z" fill="#9F616A"/>
<path d="M875.917 144.676C875.917 144.676 874.403 155.577 873.495 159.513C872.586 163.449 871.375 181.617 870.77 184.04C870.164 186.462 866.53 187.068 859.263 186.16C858.807 186.102 858.348 186.068 857.889 186.057C853.413 185.914 848.293 187.589 843.554 188.903C840.829 189.66 838.228 190.296 835.948 190.399C832.496 190.556 831.484 186.729 831.602 182.586C831.714 178.732 832.807 174.599 833.828 173.139C835.666 170.511 833.858 146.913 834.536 139.131V139.128C834.639 137.941 834.8 137.124 835.039 136.803C836.856 134.38 848.665 128.324 849.988 128.57C851.309 128.815 862.594 135.895 862.594 135.895C865.319 135.895 865.231 132.939 865.231 132.939C865.231 132.939 867.136 136.5 870.77 137.409C874.403 138.317 875.917 144.676 875.917 144.676Z" fill="#575A88"/>
<path d="M855.676 183.931C855.676 183.931 875.181 184.552 871.764 186.87C868.347 189.187 853.207 191.307 852.904 188.279C852.601 185.251 855.676 183.931 855.676 183.931Z" fill="#9F616A"/>
<path opacity="0.1" d="M857.889 186.057C857.952 187.22 854.824 189.839 853.813 191.61C853.253 192.591 848.917 191.299 843.554 188.903C839.439 187.056 835.447 184.946 831.603 182.587C831.715 178.732 832.808 174.599 833.828 173.14C835.666 170.511 833.858 146.914 834.537 139.132V139.129C834.698 139.047 834.866 138.978 835.039 138.923H838.673C851.088 144.676 836.856 169.506 836.856 169.506C836.856 169.506 855.63 184.949 857.447 185.554C857.566 185.577 857.674 185.639 857.754 185.73C857.834 185.821 857.882 185.936 857.889 186.057V186.057Z" fill="black"/>
<path d="M838.673 137.106H835.039C835.039 137.106 831.708 138.014 828.983 144.07C826.258 150.126 816.265 168.9 825.046 176.167C833.828 183.434 852.601 191.913 853.813 189.793C855.024 187.674 859.263 184.343 857.446 183.737C855.629 183.132 836.856 167.689 836.856 167.689C836.856 167.689 851.087 142.859 838.673 137.106Z" fill="#575A88"/>
<path d="M857.227 108.185C857.227 108.185 857.736 101.141 864.014 104.013C870.292 106.885 869.882 98.9682 867.985 97.5691C866.088 96.17 866.148 95.8238 859.209 96.7598C852.27 97.6959 838.799 99.2819 843.155 113.234C847.511 127.185 851.456 123.596 851.456 123.596C851.456 123.596 847.993 111.042 851.502 113.433L855.01 115.825L856.861 115.433L857.227 108.185Z" fill="#2F2E41"/>
<path opacity="0.4" d="M784.231 88.1191C791.287 88.1191 797.008 82.3988 797.008 75.3423C797.008 68.2859 791.287 62.5656 784.231 62.5656C777.174 62.5656 771.454 68.2859 771.454 75.3423C771.454 82.3988 777.174 88.1191 784.231 88.1191Z" fill="#FFB8B8"/>
<path opacity="0.4" d="M760.584 90.407C765.534 90.407 769.547 86.3942 769.547 81.4442C769.547 76.4941 765.534 72.4813 760.584 72.4813C755.634 72.4813 751.622 76.4941 751.622 81.4442C751.622 86.3942 755.634 90.407 760.584 90.407Z" fill="#FFB8B8"/>
<path opacity="0.4" d="M984.245 222.478C989.195 222.478 993.207 218.465 993.207 213.515C993.207 208.565 989.195 204.552 984.245 204.552C979.295 204.552 975.282 208.565 975.282 213.515C975.282 218.465 979.295 222.478 984.245 222.478Z" fill="#FFB8B8"/>
<path d="M1025.98 279.049H617.916V278.232H1025.57L1025.98 279.049Z" fill="#2F2E41"/>
<path d="M674.219 461.659C684.034 461.659 691.991 453.702 691.991 443.887C691.991 434.072 684.034 426.115 674.219 426.115C664.404 426.115 656.447 434.072 656.447 443.887C656.447 453.702 664.404 461.659 674.219 461.659Z" fill="#F5F0F7"/>
<path d="M707.224 417.63C717.039 417.63 724.996 409.673 724.996 399.858C724.996 390.043 717.039 382.086 707.224 382.086C697.409 382.086 689.452 390.043 689.452 399.858C689.452 409.673 697.409 417.63 707.224 417.63Z" fill="#F5F0F7"/>
<defs>
<linearGradient id="paint0_linear" x1="470.316" y1="599.6" x2="470.316" y2="56.4211" gradientUnits="userSpaceOnUse">
<stop stop-color="#808080" stop-opacity="0.25"/>
<stop offset="0.53514" stop-color="#808080" stop-opacity="0.12"/>
<stop offset="1" stop-color="#808080" stop-opacity="0.1"/>
</linearGradient>
<linearGradient id="paint1_linear" x1="75046.8" y1="63522.6" x2="75046.8" y2="58106.2" gradientUnits="userSpaceOnUse">
<stop stop-color="#808080" stop-opacity="0.25"/>
<stop offset="0.53514" stop-color="#808080" stop-opacity="0.12"/>
<stop offset="1" stop-color="#808080" stop-opacity="0.1"/>
</linearGradient>
<linearGradient id="paint2_linear" x1="129225" y1="125402" x2="129225" y2="89032.4" gradientUnits="userSpaceOnUse">
<stop stop-color="#808080" stop-opacity="0.25"/>
<stop offset="0.53514" stop-color="#808080" stop-opacity="0.12"/>
<stop offset="1" stop-color="#808080" stop-opacity="0.1"/>
</linearGradient>
</defs>
</svg>
